<svg xmlns="http://www.w3.org/2000/svg" data-name="Layer 1" viewBox="0 0 64 64" id="address"><polygon fill="none" stroke="#37a849" stroke-linecap="round" stroke-linejoin="round" stroke-width="2" points="25 11 10 15 10 53 25 49 25 11"></polygon><polyline fill="none" stroke="#37a849" stroke-linecap="round" stroke-linejoin="round" stroke-width="2" points="34.17 13.5 25 11 25 49 40 53 40 26.44"></polyline><polyline fill="none" stroke="#37a849" stroke-linecap="round" stroke-linejoin="round" stroke-width="2" points="40 26.44 40 53 55 49 55 26.44"></polyline><path fill="none" stroke="#37a849" stroke-linecap="round" stroke-linejoin="round" stroke-width="2" d="M47.5,5.55h0a9.21,9.21,0,0,1,9.21,9.21v0A9.21,9.21,0,0,1,47.5,24H38.29a0,0,0,0,1,0,0V14.77A9.21,9.21,0,0,1,47.5,5.55Z" transform="rotate(-45.01 47.497 14.772)"></path><circle cx="47.5" cy="14.68" r="4.28" fill="none" stroke="#37a849" stroke-linecap="round" stroke-linejoin="round" stroke-width="2"></circle></svg>