<svg xmlns="http://www.w3.org/2000/svg" viewBox="0 0 24 24" id="close"><path fill="#6563ff" d="m13.414 12 2.293-2.293a1 1 0 0 0-1.414-1.414L12 10.586 9.707 8.293a1 1 0 0 0-1.414 1.414L10.586 12l-2.293 2.293a1 1 0 1 0 1.414 1.414L12 13.414l2.293 2.293a1 1 0 0 0 1.414-1.414Z"></path><path fill="#b2b1ff" d="M19 2H5a3.003 3.003 0 0 0-3 3v14a3.003 3.003 0 0 0 3 3h14a3.003 3.003 0 0 0 3-3V5a3.003 3.003 0 0 0-3-3Zm-3.293 12.293a1 1 0 1 1-1.414 1.414L12 13.414l-2.293 2.293a1 1 0 0 1-1.414-1.414L10.586 12 8.293 9.707a1 1 0 0 1 1.414-1.414L12 10.586l2.293-2.293a1 1 0 0 1 1.414 1.414L13.414 12Z"></path></svg>