<svg xmlns="http://www.w3.org/2000/svg" viewBox="0 0 24 24" id="delete"><path fill="#E83628" d="M1 3v18a2 2 0 0 0 2 2h18a2 2 0 0 0 2-2V3a2 2 0 0 0-2-2H3a2 2 0 0 0-2 2z"></path><path d="M21 22.75H3a2 2 0 0 1-2-2V21a2 2 0 0 0 2 2h18a2 2 0 0 0 2-2v-.25a2 2 0 0 1-2 2z" opacity=".1"></path><path fill="#FFF" d="M21 1H3a2 2 0 0 0-2 2v.25a2 2 0 0 1 2-2h18a2 2 0 0 1 2 2V3a2 2 0 0 0-2-2z" opacity=".2"></path><path fill="#FFF" d="M16.086 6.5 12 10.586 7.914 6.5 6.5 7.914 10.586 12 6.5 16.086 7.914 17.5 12 13.414l4.086 4.086 1.414-1.414L13.414 12 17.5 7.914z"></path><linearGradient id="a" x1="13.22" x2="20.905" y1="13.22" y2="20.905" gradientUnits="userSpaceOnUse"><stop offset="0" stop-opacity=".1"></stop><stop offset="1" stop-opacity="0"></stop></linearGradient><path fill="url(#a)" d="M17.5 7.914 13.414 12l4.086 4.086-1.414 1.414L12 13.414 7.914 17.5l5.5 5.5H21a2 2 0 0 0 2-2v-7.586l-5.5-5.5z"></path><linearGradient id="b" x1="-.653" x2="24.653" y1="6.1" y2="17.9" gradientUnits="userSpaceOnUse"><stop offset="0" stop-color="#FFF" stop-opacity=".2"></stop><stop offset="1" stop-color="#FFF" stop-opacity="0"></stop></linearGradient><path fill="url(#b)" d="M1 3v18a2 2 0 0 0 2 2h18a2 2 0 0 0 2-2V3a2 2 0 0 0-2-2H3a2 2 0 0 0-2 2z"></path></svg>